<svg xmlns="http://www.w3.org/2000/svg" viewBox="0 0 1200 650" fill="none"><defs><linearGradient id="b" x1=".1" y1="0" x2=".7" y2="1"><stop stop-color="#d8dfc9"/><stop offset=".5" stop-color="#a6b193"/><stop offset="1" stop-color="#5b6950"/></linearGradient><linearGradient id="m"><stop stop-color="#8b9383"/><stop offset=".4" stop-color="#343d30"/><stop offset="1" stop-color="#171e13"/></linearGradient></defs><ellipse cx="600" cy="526" rx="408" ry="25" fill="#000" opacity=".2"/><g stroke="#10170e" stroke-width="44"><circle cx="290" cy="409" r="112"/><circle cx="925" cy="409" r="112"/></g><g stroke="#88917c" stroke-width="4"><circle cx="290" cy="409" r="85"/><circle cx="925" cy="409" r="85"/></g><g stroke="#424d38" stroke-width="11"><path d="m290 326 0 166m-83-83h166m-140-60 114 120m0-120L233 469m692-143v166m-83-83h166m-140-60 114 120m0-120L868 469"/></g><g stroke="url(#m)" stroke-width="19" stroke-linecap="round"><path d="m290 409 216-33 253-133-200 9-112 153h269l66-166m-486 3 210 134m-6-121 118 150"/></g><path d="m465 292 203-22 69 58-35 97-230-13-25-67z" fill="#252f1e" stroke="#58634c" stroke-width="4"/><g stroke="#4a5640" stroke-width="7"><path d="M481 306v90m18-96v99m19-106v108m18-112v111m19-113v116m20-119v121m20-124v125m20-126v127m20-129v130m20-126v127m20-112v109"/></g><path d="m925 409-97-229m69 229-83-206" stroke="url(#m)" stroke-width="17"/><path d="m761 205 58-23 15-38-35-3" stroke="#181e14" stroke-width="13" stroke-linecap="round"/><path d="m448 265 53-77 119-44 113 19 48 84-96 34zM275 235l36-48 144 17 68 61-183-6z" fill="url(#b)" stroke="#859375" stroke-width="3"/><path d="m299 186 145 8 83 56-58 3-166-34z" fill="#222b1c"/><path d="m834 215 37 1 13 39-36 0" fill="#d8f4b6"/><path d="m812 196 51-5 27 71-52-2z" stroke="#20291a" stroke-width="13"/><path d="m469 423 233 7 24 29-216-6z" fill="url(#b)"/><path d="M201 327q92-90 181 7m445-10q96-88 184 9" stroke="#778669" stroke-width="14"/><path d="m303 239-23 0" stroke="#db6b48" stroke-width="8"/><text x="565" y="220" font-size="22" font-family="Arial" font-style="italic" font-weight="700" fill="#38452e">VOLT</text></svg>
